<svg version="1" xmlns="http://www.w3.org/2000/svg" width="682.667" height="682.667" viewBox="0 0 512.000000 512.000000"><path d="M332.9 71.3c-.9 2.3-4.7 11.4-8.4 20.2-8.8 21.2-9.3 22.7-7.5 23.3 3.3 1.1 18.4 9.4 24.2 13.3 34.7 23.4 57.1 56.9 65.9 98.5 3.3 15.4 3.3 44 .1 59.1-6.8 31.6-20.3 56.5-42.6 78.9-22.4 22.3-47.3 35.8-78.9 42.6-15.1 3.2-43.7 3.2-59.1-.1-25.4-5.4-45.9-14.8-66.1-30.6-7.7-6-18.4-16.6-23.5-23.2l-2.5-3.2-5.5 4.2c-22.7 17.3-35 26.9-35 27.2 0 .8 8.5 10.3 16.3 18.4 16.2 16.6 35.1 30.1 56.9 40.6 19.7 9.4 39.8 15.6 61.3 18.7 11.7 1.6 43.4 1.6 55.5-.1 61.9-8.7 115.6-44.3 148-98.1 13.9-23 23.2-49.6 27.1-77 1.7-12.1 1.7-43.8.1-55.5-8-55.6-38-105.7-82.7-138.2-9.2-6.6-18.5-12.3-29.3-17.7-12.7-6.4-12.4-6.3-14.3-1.3z"/><path d="M164.1 193.8c-1.9.9-4.4 3-5.5 4.5-2.1 2.8-2.1 3.8-2.1 57.7 0 53.9 0 54.9 2.1 57.7 1.1 1.5 3.6 3.6 5.5 4.5 3.2 1.7 9.8 1.8 95.9 1.8 86.1 0 92.7-.1 95.9-1.8 1.9-.9 4.4-3 5.5-4.5 2.1-2.8 2.1-3.8 2.1-57.7 0-53.9 0-54.9-2.1-57.7-1.1-1.5-3.6-3.6-5.5-4.5-3.2-1.7-9.8-1.8-95.9-1.8-86.1 0-92.7.1-95.9 1.8zm187.7 9.8l2.2 1.5v101.8l-2.2 1.5c-2 1.4-12.4 1.6-91.8 1.6-79.4 0-89.8-.2-91.8-1.6l-2.2-1.5V205.1l2.2-1.5c2-1.4 12.4-1.6 91.8-1.6 79.4 0 89.8.2 91.8 1.6z"/><path d="M186 256v34h20l.2-19.1.3-19.1 9.5 12.1c5.2 6.6 9.7 12 10 12 .3 0 4.8-5.4 10-12l9.5-12.1.3 19.1.2 19.1h20v-68h-10.2l-10.3.1-9.4 11.9c-5.2 6.6-9.7 12-10.1 12-.4 0-4.9-5.4-10.1-12l-9.4-11.9-10.2-.1H186v34zM300 239v16.9l-9.9.3-10 .3 14.6 17c8 9.3 14.9 17 15.3 17 .4 0 7.3-7.7 15.3-17l14.6-17-10-.3-9.9-.3V222h-20v17z"/></svg>