<?xml version="1.0" encoding="UTF-8" standalone="no"?>
<svg
  xmlns:dc="http://purl.org/dc/elements/1.1/"
  xmlns:cc="http://creativecommons.org/ns#"
  xmlns:rdf="http://www.w3.org/1999/02/22-rdf-syntax-ns#"
  xmlns:sodipodi="http://sodipodi.sourceforge.net/DTD/sodipodi-0.dtd"
  xmlns:inkscape="http://www.inkscape.org/namespaces/inkscape"
  xmlns="http://www.w3.org/2000/svg"
  sodipodi:docname="inkscape_silhouette.svg"
  inkscape:version="1.0 (4035a4fb49, 2020-05-01)"
  id="svg8"
  version="1.1"
  viewBox="0 0 10.583334 10.583333"
  height="30pt"
  width="30pt"
  inkscape:export-filename="C:\Users\Jonat\Documents\_Documents\Code\C#\markdraw\doc\assets\logo.png"
  inkscape:export-xdpi="300"
  inkscape:export-ydpi="300">
  <defs
    id="defs2" />
  <sodipodi:namedview
    inkscape:window-maximized="1"
    inkscape:window-y="-9"
    inkscape:window-x="2391"
    inkscape:window-height="1271"
    inkscape:window-width="2400"
    inkscape:pagecheckerboard="true"
    inkscape:snap-grids="true"
    showguides="false"
    inkscape:snap-center="true"
    inkscape:snap-object-midpoints="false"
    units="pt"
    showgrid="true"
    inkscape:document-rotation="0"
    inkscape:current-layer="layer1"
    inkscape:document-units="mm"
    inkscape:cy="11.161893"
    inkscape:cx="13.987065"
    inkscape:zoom="15.839192"
    inkscape:pageshadow="2"
    inkscape:pageopacity="0"
    borderopacity="1.0"
    bordercolor="#666666"
    pagecolor="#5b5b5b"
    id="base">
    <inkscape:grid
      id="grid833"
      type="xygrid" />
  </sodipodi:namedview>
  <metadata
    id="metadata5">
    <rdf:RDF>
      <cc:Work
        rdf:about="">
        <dc:format>image/svg+xml</dc:format>
        <dc:type
          rdf:resource="http://purl.org/dc/dcmitype/StillImage" />
        <dc:title></dc:title>
      </cc:Work>
    </rdf:RDF>
  </metadata>
  <g
    style="display:inline"
    id="layer1"
    inkscape:groupmode="layer"
    inkscape:label="Layer 1">
    <path
      transform="scale(0.26458333)"
      d="M 20 0 A 19.999999 19.999999 0 0 0 0 20 A 19.999999 19.999999 0 0 0 20 40 A 19.999999 19.999999 0 0 0 40 20 A 19.999999 19.999999 0 0 0 20 0 z M 19.927734 5.0507812 A 14.949237 14.949237 0 0 1 20 5.0507812 A 14.949237 14.949237 0 0 1 34.949219 20 A 14.949237 14.949237 0 0 1 20 34.949219 A 14.949237 14.949237 0 0 1 5.0507812 20 A 14.949237 14.949237 0 0 1 19.927734 5.0507812 z "
      style="opacity:0.999;fill:#000000;fill-opacity:1;stroke-width:0.245669"
      id="path889" />
  </g>
  <g
    style="display:inline"
    inkscape:label="Layer 2"
    id="layer2"
    inkscape:groupmode="layer">
    <g
      transform="matrix(0.02600508,0,0,0.02600508,2.5871383,3.6273414)"
      id="g1632"
      style="display:inline">
      <rect
        width="198"
        height="118"
        x="5"
        y="5"
        ry="10"
        stroke="#000000"
        stroke-width="10"
        fill="none"
        id="rect1618" />
      <path
        d="M 30,98 V 30 H 50 L 70,55 90,30 h 20 V 98 H 90 V 59 L 70,84 50,59 v 39 z m 125,0 -30,-33 h 20 V 30 h 20 v 35 h 20 z"
        id="path1620" />
    </g>
  </g>
</svg>
