<?xml version="1.0" encoding="UTF-8" standalone="no"?>
<svg
    xmlns:dc="http://purl.org/dc/elements/1.1/"
    xmlns:cc="http://creativecommons.org/ns#"
    xmlns:rdf="http://www.w3.org/1999/02/22-rdf-syntax-ns#"
    xmlns:sodipodi="http://sodipodi.sourceforge.net/DTD/sodipodi-0.dtd"
    xmlns:inkscape="http://www.inkscape.org/namespaces/inkscape"
    xmlns="http://www.w3.org/2000/svg"
    sodipodi:docname="inkscape_logo.svg"
    inkscape:version="1.0 (4035a4fb49, 2020-05-01)"
    id="svg8"
    version="1.1"
    viewBox="0 0 10.583334 10.583333"
    height="30pt"
    width="30pt"
    inkscape:export-filename="C:\Users\Jonat\Documents\_Documents\Code\C#\markdraw\doc\assets\logo.png"
    inkscape:export-xdpi="300"
    inkscape:export-ydpi="300">
  <defs
      id="defs2" />
  <sodipodi:namedview
      inkscape:window-maximized="1"
      inkscape:window-y="-9"
      inkscape:window-x="2391"
      inkscape:window-height="1271"
      inkscape:window-width="2400"
      inkscape:pagecheckerboard="true"
      inkscape:snap-grids="true"
      showguides="false"
      inkscape:snap-center="true"
      inkscape:snap-object-midpoints="false"
      units="pt"
      showgrid="true"
      inkscape:document-rotation="0"
      inkscape:current-layer="layer1"
      inkscape:document-units="mm"
      inkscape:cy="10.280888"
      inkscape:cx="13.987065"
      inkscape:zoom="15.839192"
      inkscape:pageshadow="2"
      inkscape:pageopacity="0"
      borderopacity="1.0"
      bordercolor="#666666"
      pagecolor="#5b5b5b"
      id="base">
    <inkscape:grid
        id="grid833"
        type="xygrid" />
  </sodipodi:namedview>
  <metadata
      id="metadata5">
    <rdf:RDF>
      <cc:Work
          rdf:about="">
        <dc:format>image/svg+xml</dc:format>
        <dc:type
            rdf:resource="http://purl.org/dc/dcmitype/StillImage" />
        <dc:title />
      </cc:Work>
    </rdf:RDF>
  </metadata>
  <g
      style="display:inline"
      id="layer1"
      inkscape:groupmode="layer"
      inkscape:label="Layer 1">
    <path
        id="use1382"
        style="opacity:0.999;fill:#ffff00;fill-opacity:1;stroke:none;stroke-width:0.0649999"
        d="M 4.6009655,0.0452709 5.2916667,5.2916672 6.4368769,0.1256847 A 5.2916663,5.2916663 0 0 0 4.6009655,0.0452709 Z"
        inkscape:transform-center-x="-0.90485449"
        inkscape:transform-center-y="-2.6458333"
        inkscape:tile-x0="5.291667"
        inkscape:tile-y0="-1.1666669e-07" />
    <path
        id="use1384"
        style="opacity:0.999;fill:#ffbf00;fill-opacity:1;stroke:none;stroke-width:0.0649999"
        d="M 5.9823678,0.04527079 5.2916666,5.2916671 7.7349094,0.59811339 A 5.2916663,5.2916663 0 0 0 5.9823678,0.04527079 Z"
        inkscape:transform-center-x="-0.90485449"
        inkscape:transform-center-y="-2.6458333"
        inkscape:tile-x0="5.291667"
        inkscape:tile-y0="-1.1666669e-07" />
    <path
        id="use1386"
        style="opacity:0.999;fill:#ff7f00;fill-opacity:1;stroke:none;stroke-width:0.0649999"
        d="M 7.3167,0.40280392 5.2916666,5.291667 8.866439,1.3904 A 5.2916663,5.2916663 0 0 0 7.3167,0.40280392 Z"
        inkscape:transform-center-x="-0.90485449"
        inkscape:transform-center-y="-2.6458333"
        inkscape:tile-x0="5.291667"
        inkscape:tile-y0="-1.1666669e-07" />
    <path
        id="use1388"
        style="opacity:0.999;fill:#ff4000;fill-opacity:1;stroke:none;stroke-width:0.0649999"
        d="M 8.5130295,1.093505 5.2916666,5.2916669 9.7543538,2.4485515 A 5.2916663,5.2916663 0 0 0 8.5130295,1.093505 Z"
        inkscape:transform-center-x="-0.90485449"
        inkscape:transform-center-y="-2.6458333"
        inkscape:tile-x0="5.291667"
        inkscape:tile-y0="-1.1666669e-07" />
    <path
        id="use1390"
        style="opacity:0.999;fill:#ff0000;fill-opacity:1;stroke:none;stroke-width:0.0649999"
        d="M 9.4898286,2.0703039 5.2916667,5.2916668 10.338144,3.7004567 A 5.2916663,5.2916663 0 0 0 9.4898286,2.0703039 Z"
        inkscape:transform-center-x="-0.90485449"
        inkscape:transform-center-y="-2.6458333"
        inkscape:tile-x0="5.291667"
        inkscape:tile-y0="-1.1666669e-07" />
    <path
        id="use1392"
        style="opacity:0.999;fill:#ff0040;fill-opacity:1;stroke:none;stroke-width:0.0649999"
        d="M 10.18053,3.2666333 5.2916668,5.2916667 10.578025,5.0608002 A 5.2916663,5.2916663 0 0 0 10.18053,3.2666333 Z"
        inkscape:transform-center-x="-0.90485449"
        inkscape:transform-center-y="-2.6458333"
        inkscape:tile-x0="5.291667"
        inkscape:tile-y0="-1.1666669e-07" />
    <path
        id="use1394"
        style="opacity:0.999;fill:#ff0080;fill-opacity:1;stroke:none;stroke-width:0.0649999"
        d="M 10.538063,4.6009654 5.2916668,5.2916666 10.457649,6.4368768 a 5.2916663,5.2916663 0 0 0 0.08041,-1.8359114 z"
        inkscape:transform-center-x="-0.90485449"
        inkscape:transform-center-y="-2.6458333"
        inkscape:tile-x0="5.291667"
        inkscape:tile-y0="-1.1666669e-07" />
    <path
        id="use1396"
        style="opacity:0.999;fill:#ff00bf;fill-opacity:1;stroke:none;stroke-width:0.0649999"
        d="M 10.538063,5.9823678 5.2916669,5.2916666 9.9852206,7.7349094 A 5.2916663,5.2916663 0 0 0 10.538063,5.9823678 Z"
        inkscape:transform-center-x="-0.90485449"
        inkscape:transform-center-y="-2.6458333"
        inkscape:tile-x0="5.291667"
        inkscape:tile-y0="-1.1666669e-07" />
    <path
        id="use1398"
        style="opacity:0.999;fill:#ff00ff;fill-opacity:1;stroke:none;stroke-width:0.0649999"
        d="M 10.18053,7.3166999 5.291667,5.2916666 9.1929339,8.866439 A 5.2916663,5.2916663 0 0 0 10.18053,7.3166999 Z"
        inkscape:transform-center-x="-0.90485449"
        inkscape:transform-center-y="-2.6458333"
        inkscape:tile-x0="5.291667"
        inkscape:tile-y0="-1.1666669e-07" />
    <path
        id="use1400"
        style="opacity:0.999;fill:#bf00ff;fill-opacity:1;stroke:none;stroke-width:0.0649999"
        d="M 9.4898289,8.5130295 5.291667,5.2916666 8.1347824,9.7543537 A 5.2916663,5.2916663 0 0 0 9.4898289,8.5130295 Z"
        inkscape:transform-center-x="-0.90485449"
        inkscape:transform-center-y="-2.6458333"
        inkscape:tile-x0="5.291667"
        inkscape:tile-y0="-1.1666669e-07" />
    <path
        id="use1402"
        style="opacity:0.999;fill:#7f00ff;fill-opacity:1;stroke:none;stroke-width:0.0649999"
        d="M 8.5130302,9.4898285 5.2916673,5.2916666 6.8828774,10.338144 A 5.2916663,5.2916663 0 0 0 8.5130302,9.4898285 Z"
        inkscape:transform-center-x="-0.90485449"
        inkscape:transform-center-y="-2.6458333"
        inkscape:tile-x0="5.291667"
        inkscape:tile-y0="-1.1666669e-07" />
    <path
        id="use1404"
        style="opacity:0.999;fill:#4000ff;fill-opacity:1;stroke:none;stroke-width:0.0649999"
        d="M 7.3167007,10.18053 5.2916673,5.2916667 5.5225338,10.578025 A 5.2916663,5.2916663 0 0 0 7.3167007,10.18053 Z"
        inkscape:transform-center-x="-0.90485449"
        inkscape:transform-center-y="-2.6458333"
        inkscape:tile-x0="5.291667"
        inkscape:tile-y0="-1.1666669e-07" />
    <path
        id="use1406"
        style="opacity:0.999;fill:#0000ff;fill-opacity:1;stroke:none;stroke-width:0.0649999"
        d="M 5.9823685,10.538063 5.2916673,5.2916669 4.1464571,10.457649 a -5.2916663,-5.2916663 0 0 0 1.8359114,0.08041 z"
        inkscape:transform-center-x="-0.90485449"
        inkscape:transform-center-y="-2.6458333"
        inkscape:tile-x0="5.291667"
        inkscape:tile-y0="-1.1666669e-07" />
    <path
        id="use1408"
        style="opacity:0.999;fill:#0040ff;fill-opacity:1;stroke:none;stroke-width:0.0649999"
        d="M 4.6009662,10.538063 5.2916673,5.2916669 2.8484246,9.9852206 a 5.2916663,5.2916663 0 0 0 1.7525416,0.5528424 z"
        inkscape:transform-center-x="-0.90485449"
        inkscape:transform-center-y="-2.6458333"
        inkscape:tile-x0="5.291667"
        inkscape:tile-y0="-1.1666669e-07" />
    <path
        id="use1410"
        style="opacity:0.999;fill:#0080ff;fill-opacity:1;stroke:none;stroke-width:0.0649999"
        d="M 3.2666341,10.18053 5.2916674,5.291667 1.716895,9.192934 a 5.2916663,5.2916663 0 0 0 1.5497391,0.987596 z"
        inkscape:transform-center-x="-0.90485449"
        inkscape:transform-center-y="-2.6458333"
        inkscape:tile-x0="5.291667"
        inkscape:tile-y0="-1.1666669e-07" />
    <path
        id="use1412"
        style="opacity:0.999;fill:#00bfff;fill-opacity:1;stroke:none;stroke-width:0.0649999"
        d="M 2.0703045,9.4898291 5.2916674,5.2916672 0.8289802,8.1347825 a 5.2916663,5.2916663 0 0 0 1.2413243,1.3550466 z"
        inkscape:transform-center-x="-0.90485449"
        inkscape:transform-center-y="-2.6458333"
        inkscape:tile-x0="5.291667"
        inkscape:tile-y0="-1.1666669e-07" />
    <path
        id="use1414"
        style="opacity:0.999;fill:#00ffff;fill-opacity:1;stroke:none;stroke-width:0.0649999"
        d="M 1.0935054,8.5130301 5.2916673,5.2916672 0.2451901,6.8828773 a 5.2916663,5.2916663 0 0 0 0.8483153,1.6301528 z"
        inkscape:transform-center-x="-0.90485449"
        inkscape:transform-center-y="-2.6458333"
        inkscape:tile-x0="5.291667"
        inkscape:tile-y0="-1.1666669e-07" />
    <path
        id="use1416"
        style="opacity:0.999;fill:#00ffbf;fill-opacity:1;stroke:none;stroke-width:0.0649999"
        d="M 0.40280419,7.3167006 5.2916672,5.2916672 0.00530912,5.5225338 a 5.2916663,5.2916663 0 0 0 0.39749507,1.7941668 z"
        inkscape:transform-center-x="-0.90485449"
        inkscape:transform-center-y="-2.6458333"
        inkscape:tile-x0="5.291667"
        inkscape:tile-y0="-1.1666669e-07" />
    <path
        id="use1418"
        style="opacity:0.999;fill:#00ff7f;fill-opacity:1;stroke:none;stroke-width:0.0649999"
        d="M 0.0452709,5.9823686 5.2916672,5.2916674 0.1256847,4.1464572 A 5.2916663,5.2916663 0 0 0 0.0452709,5.9823686 Z"
        inkscape:transform-center-x="-0.90485449"
        inkscape:transform-center-y="-2.6458333"
        inkscape:tile-x0="5.291667"
        inkscape:tile-y0="-1.1666669e-07" />
    <path
        id="use1420"
        style="opacity:0.999;fill:#00ff40;fill-opacity:1;stroke:none;stroke-width:0.0649999"
        d="M 0.04527084,4.6009662 5.2916671,5.2916674 0.59811344,2.8484246 a 5.2916663,5.2916663 0 0 0 -0.5528426,1.7525416 z"
        inkscape:transform-center-x="-0.90485449"
        inkscape:transform-center-y="-2.6458333"
        inkscape:tile-x0="5.291667"
        inkscape:tile-y0="-1.1666669e-07" />
    <path
        id="use1422"
        style="opacity:0.999;fill:#00ff00;fill-opacity:1;stroke:none;stroke-width:0.0649999"
        d="M 0.40280394,3.266634 5.291667,5.2916673 1.3904,1.7168949 A 5.2916663,5.2916663 0 0 0 0.40280394,3.266634 Z"
        inkscape:transform-center-x="-0.90485449"
        inkscape:transform-center-y="-2.6458333"
        inkscape:tile-x0="5.291667"
        inkscape:tile-y0="-1.1666669e-07" />
    <path
        id="use1424"
        style="opacity:0.999;fill:#40ff00;fill-opacity:1;stroke:none;stroke-width:0.0649999"
        d="M 1.093505,2.0703045 5.2916669,5.2916674 2.4485515,0.82898023 A 5.2916663,5.2916663 0 0 0 1.093505,2.0703045 Z"
        inkscape:transform-center-x="-0.90485449"
        inkscape:transform-center-y="-2.6458333"
        inkscape:tile-x0="5.291667"
        inkscape:tile-y0="-1.1666669e-07" />
    <path
        id="use1426"
        style="opacity:0.999;fill:#7eff00;fill-opacity:1;stroke:none;stroke-width:0.0649999"
        d="M 2.0703039,1.0935054 5.2916668,5.2916673 3.7004567,0.24519014 A 5.2916663,5.2916663 0 0 0 2.0703039,1.0935054 Z"
        inkscape:transform-center-x="-0.90485449"
        inkscape:transform-center-y="-2.6458333"
        inkscape:tile-x0="5.291667"
        inkscape:tile-y0="-1.1666669e-07" />
    <path
        id="use1428"
        style="opacity:0.999;fill:#c0ff00;fill-opacity:1;stroke:none;stroke-width:0.0649999"
        d="M 3.2666333,0.40280422 5.2916667,5.2916673 5.0608002,0.00530915 A 5.2916663,5.2916663 0 0 0 3.2666333,0.40280422 Z"
        inkscape:transform-center-x="-0.90485449"
        inkscape:transform-center-y="-2.6458333"
        inkscape:tile-x0="5.291667"
        inkscape:tile-y0="-1.1666669e-07" />
    <path
        inkscape:transform-center-y="-2.6458335"
        inkscape:transform-center-x="-0.45940341"
        d="M 4.6009655,0.04527098 5.2916666,5.2916668 5.5224342,0.00526824 A 5.2916663,5.2916663 0 0 0 4.6009655,0.04527098 Z"
        style="fill:#fffe00;fill-opacity:1;stroke-width:0.0649999"
        id="path937" />
  </g>
  <g
      style="display:inline"
      inkscape:label="Layer 2"
      id="layer2"
      inkscape:groupmode="layer">
    <circle
        r="3.9553189"
        cy="5.2916665"
        cx="5.2916665"
        id="path1506"
        style="display:inline;opacity:0.999;fill:#ffffff;fill-opacity:1;stroke:none;stroke-width:0.0485849" />
    <g
        transform="matrix(0.02600508,0,0,0.02600508,2.5871383,3.6273414)"
        id="g1632"
        style="display:inline">
      <rect
          width="198"
          height="118"
          x="5"
          y="5"
          ry="10"
          stroke="#000000"
          stroke-width="10"
          fill="none"
          id="rect1618" />
      <path
          d="M 30,98 V 30 H 50 L 70,55 90,30 h 20 V 98 H 90 V 59 L 70,84 50,59 v 39 z m 125,0 -30,-33 h 20 V 30 h 20 v 35 h 20 z"
          id="path1620" />
    </g>
  </g>
</svg>
