<?xml version="1.0" encoding="UTF-8" standalone="no"?>
<svg
    xmlns:dc="http://purl.org/dc/elements/1.1/"
    xmlns:cc="http://creativecommons.org/ns#"
    xmlns:rdf="http://www.w3.org/1999/02/22-rdf-syntax-ns#"
    xmlns="http://www.w3.org/2000/svg"
    id="svg8"
    version="1.1"
    viewBox="0 0 10.583334 10.583333"
    height="30pt"
    width="30pt">
  <defs
      id="defs2" />
  <metadata
      id="metadata5">
    <rdf:RDF>
      <cc:Work
          rdf:about="">
        <dc:format>image/svg+xml</dc:format>
        <dc:type
            rdf:resource="http://purl.org/dc/dcmitype/StillImage" />
        <dc:title></dc:title>
      </cc:Work>
    </rdf:RDF>
  </metadata>
  <g
      style="display:inline"
      id="layer1">
    <path
        transform="scale(0.26458333)"
        d="M 20 0 A 19.999999 19.999999 0 0 0 0 20 A 19.999999 19.999999 0 0 0 20 40 A 19.999999 19.999999 0 0 0 40 20 A 19.999999 19.999999 0 0 0 20 0 z M 19.927734 5.0507812 A 14.949237 14.949237 0 0 1 20 5.0507812 A 14.949237 14.949237 0 0 1 34.949219 20 A 14.949237 14.949237 0 0 1 20 34.949219 A 14.949237 14.949237 0 0 1 5.0507812 20 A 14.949237 14.949237 0 0 1 19.927734 5.0507812 z "
        style="opacity:0.999;fill:#000000;fill-opacity:1;stroke-width:0.245669"
        id="path889" />
  </g>
  <g
      style="display:inline"
      id="layer2">
    <g
        transform="matrix(0.02600508,0,0,0.02600508,2.5871383,3.6273414)"
        id="g1632"
        style="display:inline">
      <rect
          width="198"
          height="118"
          x="5"
          y="5"
          ry="10"
          stroke="#000000"
          stroke-width="10"
          fill="none"
          id="rect1618" />
      <path
          d="M 30,98 V 30 H 50 L 70,55 90,30 h 20 V 98 H 90 V 59 L 70,84 50,59 v 39 z m 125,0 -30,-33 h 20 V 30 h 20 v 35 h 20 z"
          id="path1620" />
    </g>
  </g>
</svg>
