<?xml version="1.0" standalone="no"?>
<!DOCTYPE svg PUBLIC "-//W3C//DTD SVG 20010904//EN"
 "http://www.w3.org/TR/2001/REC-SVG-20010904/DTD/svg10.dtd">
<svg version="1.0" xmlns="http://www.w3.org/2000/svg"
 width="700.000000pt" height="700.000000pt" viewBox="0 0 700.000000 700.000000"
 preserveAspectRatio="xMidYMid meet">
<metadata>
Created by potrace 1.14, written by Peter Selinger 2001-2017
</metadata>
<g transform="translate(0.000000,700.000000) scale(0.100000,-0.100000)"
fill="#000000" stroke="none">
<path d="M3278 6996 c-1 -2 -39 -6 -83 -10 -133 -10 -220 -23 -435 -65 -154
-31 -472 -130 -597 -187 -28 -13 -54 -24 -58 -24 -13 0 -287 -140 -380 -194
-88 -52 -251 -158 -295 -193 -8 -6 -51 -40 -95 -74 -411 -319 -772 -772 -998
-1251 -123 -260 -225 -571 -273 -833 -9 -49 -17 -97 -19 -105 -11 -59 -20
-136 -31 -255 -16 -165 -9 -608 10 -712 2 -10 7 -43 10 -74 4 -31 9 -67 11
-80 3 -13 7 -37 9 -54 11 -75 62 -283 103 -415 255 -827 795 -1516 1543 -1972
82 -50 390 -208 405 -208 3 0 24 -9 48 -19 192 -87 581 -198 784 -225 22 -3
52 -8 65 -10 179 -41 744 -41 985 -2 21 4 52 8 68 10 132 17 399 84 579 146
570 197 1085 538 1476 979 36 41 70 79 75 85 25 26 146 188 197 261 298 430
524 1010 583 1500 4 28 8 61 11 75 19 113 26 541 11 715 -7 81 -23 206 -31
252 -2 10 -11 59 -21 108 -114 613 -417 1219 -841 1684 -85 93 -258 261 -334
322 -36 30 -67 56 -70 60 -13 16 -230 171 -299 214 -308 191 -565 309 -891
408 -129 40 -297 79 -390 93 -19 3 -60 9 -91 15 -31 5 -81 12 -110 15 -30 3
-67 8 -84 10 -34 6 -541 14 -547 10z m456 -890 c43 -4 86 -9 95 -11 9 -1 41
-6 71 -10 30 -3 71 -10 90 -15 19 -5 49 -11 65 -13 47 -7 211 -53 305 -86 449
-157 838 -427 1152 -801 172 -204 349 -510 442 -762 36 -98 101 -324 111 -388
3 -19 10 -57 15 -85 31 -169 43 -462 27 -653 -8 -88 -25 -217 -32 -242 -2 -8
-7 -35 -10 -60 -11 -77 -92 -344 -140 -462 -69 -168 -137 -297 -241 -453 -370
-562 -932 -957 -1580 -1110 -56 -14 -117 -27 -135 -29 -218 -31 -287 -38 -429
-39 -252 -2 -426 16 -645 68 -912 215 -1648 917 -1908 1820 -19 66 -37 134
-40 150 -3 17 -8 41 -12 55 -40 172 -61 513 -43 719 11 132 33 295 42 310 2 3
7 24 10 46 16 100 86 321 151 475 209 496 616 957 1090 1232 202 118 510 241
705 283 111 24 164 34 210 40 30 4 64 9 75 11 11 2 56 7 100 10 44 4 81 7 82
8 6 5 309 -2 377 -8z"/>
<path d="M2270 4600 c-341 -5 -378 -7 -410 -24 -49 -26 -98 -74 -123 -121
l-22 -40 0 -915 c0 -873 1 -917 19 -950 26 -49 74 -98 121 -123 l40 -22 1592
-3 1592 -2 54 24 c60 26 98 61 130 121 l22 40 3 901 c2 889 2 902 -18 950 -25
61 -67 107 -123 136 -32 17 -64 23 -137 25 -154 6 -2332 8 -2740 3z m2817
-194 l28 -24 0 -881 0 -880 -23 -23 -23 -23 -1569 0 -1569 0 -23 23 -23 23 -1
870 c0 609 3 876 10 892 25 49 -38 47 1613 47 l1552 0 28 -24z"/>
<path d="M2233 4083 c-6 -2 -9 -1106 -3 -1163 0 -3 75 -5 168 -5 l167 0 5 334
5 333 170 -212 169 -213 29 34 c16 19 41 50 56 69 14 19 78 99 141 178 l115
144 5 -334 5 -333 168 0 c106 0 167 3 168 10 4 42 3 1155 -1 1156 -3 1 -81 2
-174 3 -144 1 -170 -1 -180 -15 -6 -9 -27 -36 -47 -60 -20 -24 -83 -102 -140
-174 -144 -181 -143 -180 -160 -162 -8 8 -23 27 -34 42 -11 16 -82 105 -157
199 l-138 171 -165 0 c-90 0 -168 -1 -172 -2z"/>
<path d="M4209 4075 c-1 -5 -2 -140 -3 -300 l-1 -290 -160 -1 c-88 -1 -165 -2
-172 -3 -7 -1 -3 -11 10 -24 25 -26 158 -171 298 -326 52 -57 117 -128 145
-159 l51 -55 24 25 c13 14 60 65 104 113 44 49 87 96 95 105 8 9 55 61 105
116 49 54 111 121 137 149 34 36 44 51 33 55 -8 3 -84 4 -169 4 l-156 -2 -2
302 -3 301 -167 0 c-105 0 -168 -4 -169 -10z"/>
</g>
</svg>
